# xmcd
#
# Track frame offsets: 
#        150
#        14051
#        29867
#        46236
#        60031
#        78276
#        93016
#        102094
#        113473
#        131666
#        153131
#        164386
#        182703
#        205335
#        213600
#
# Disc length: 3161 seconds
#
# Revision: 0
# Processed by: cddbd v1.5.2PL0 Copyright (c) Steve Scherf et al.
# Submitted via: ExactAudioCopy v0.99pb1
#
DISCID=bc0c570f
DTITLE=Stringbean and The Stalkers - Little Monster
DYEAR=2002
DGENRE=Blues
TTITLE0=Something Wrong
TTITLE1=I Gotta Go
TTITLE2=Counting On You
TTITLE3=Chance To Explain
TTITLE4=Little Monster
TTITLE5=Stringbean Strut
TTITLE6=Don't Even Think About It
TTITLE7=Bad Luck Situation
TTITLE8=Little Girl
TTITLE9=Back On That Horse
TTITLE10=Just Your Fool
TTITLE11=Justa Letcha Know
TTITLE12=Dirty Lowdown Shame
TTITLE13=Something Fishy
TTITLE14=A Nice Way Of Closing
EXTD=
EXTT0=
EXTT1=
EXTT2=
EXTT3=
EXTT4=
EXTT5=
EXTT6=
EXTT7=
EXTT8=
EXTT9=
EXTT10=
EXTT11=
EXTT12=
EXTT13=
EXTT14=
PLAYORDER=
